<svg width="113" height="126" viewBox="0 0 113 126" fill="none" xmlns="http://www.w3.org/2000/svg">
<path opacity="0.2" d="M54.1892 70.4011C57.6141 68.7001 60.814 66.5407 63.6747 63.9999C66.4859 61.4377 68.9599 58.5673 71.0253 55.4712C73.0931 52.4711 74.8032 49.2975 76.1185 46.0189C77.4487 42.7457 78.1867 39.3597 78.2989 36.0157C78.3479 34.3306 78.1368 32.6836 77.6722 31.1258C77.2128 29.4981 76.3606 28.0399 75.1761 26.8547C73.8361 25.548 72.0004 24.7715 69.9614 24.6489C67.8638 24.5756 65.6992 25.0745 63.7185 26.0877C62.7861 26.5422 61.8839 27.0632 61.0208 27.6457C60.2107 28.2246 59.4273 28.8392 58.6739 29.4869C57.9479 30.1084 57.2589 30.7684 56.6114 31.4626L55.5781 32.5116L54.682 33.5566C52.446 36.2485 50.4634 39.103 48.7619 42.0796C47.0551 44.9804 45.7608 48.0366 44.9176 51.1573C44.1206 54.1175 43.7704 57.1089 43.8778 60.0382L43.9014 61.0976L44.0293 62.1306C44.1076 62.8091 44.1879 63.5161 44.2832 64.1681C44.5069 65.4823 44.8052 66.7745 45.1767 68.0394C45.3962 68.7709 45.6584 69.4882 45.9207 70.2054C45.1491 70.4334 44.4352 70.5921 43.607 70.814C40.5412 71.5195 37.4486 71.8422 34.4125 71.7732C31.5125 71.6716 28.7113 71.146 26.1057 70.2145C21.2099 68.2816 17.0106 65.2497 13.8234 61.3466C10.8401 57.6867 8.4787 53.5724 6.80738 49.1223C5.26125 45.054 4.08795 40.8245 3.29894 36.4752C2.56236 32.6755 2.10525 28.7957 1.93065 24.8615C1.64245 19.0995 2.37239 13.1919 4.09156 7.37294C5.40817 3.20269 6.67349 0.904816 6.41103 0.904748C5.97647 1.38616 5.62075 1.92189 5.3587 2.48958C4.4957 4.04743 3.75235 5.64861 3.13519 7.27897C1.0135 13.1755 -0.0242571 19.2304 0.0704436 25.1606C0.0897372 29.2125 0.409371 33.2168 1.02704 37.1449C1.69297 41.6509 2.76057 46.0429 4.21917 50.2768C5.83537 54.9936 8.1924 59.3692 11.22 63.2733C14.553 67.588 19.0191 70.9643 24.2715 73.1398C27.1604 74.2441 30.2806 74.8903 33.5217 75.0553C36.9134 75.1913 40.3781 74.8768 43.8177 74.1208C45.004 73.8756 46.1845 73.5684 47.3533 73.2008C48.6234 75.8252 50.1609 78.3002 51.9471 80.5957C56.7607 86.657 62.6101 91.8747 69.3065 96.0805C74.131 99.1636 79.2712 101.834 84.677 104.065C90.6393 106.584 96.9697 108.442 103.559 109.608L105.64 109.889L103.63 110.634C101.483 111.488 99.4418 112.418 97.5049 113.322C94.0952 114.964 90.7863 116.833 87.6071 118.914C82.1678 122.479 79.2858 125.253 79.5601 125.603C79.8343 125.954 83.2261 123.952 88.7059 121.062C91.4752 119.635 94.7654 117.971 98.4971 116.364C100.371 115.548 102.34 114.742 104.386 113.972C105.422 113.593 106.47 113.206 107.532 112.84C108.069 112.653 108.553 112.516 109.331 112.195C110.356 111.797 111.263 111.11 111.913 110.237C112.251 109.764 112.492 109.244 112.62 108.709C112.713 108.29 112.749 107.869 112.727 107.456C112.676 106.851 112.556 106.262 112.367 105.7C112.098 104.793 111.805 103.903 111.538 103.025C110.973 101.274 110.407 99.5995 109.858 98.002C108.714 94.8397 107.574 92.093 106.523 89.7334C104.456 85.169 102.764 82.4853 102.238 82.7399C101.712 82.9944 102.405 86.1363 103.764 91.0488L106.24 99.6208C106.71 101.232 107.196 102.917 107.697 104.676C107.945 105.552 108.207 106.449 108.47 107.345C108.478 107.369 108.492 107.39 108.511 107.406C107.756 107.145 106.67 106.811 105.092 106.395C98.9729 104.717 93.0381 102.641 87.3257 100.18C82.198 97.9024 77.3067 95.2511 72.6899 92.2469C66.366 88.1988 60.8291 83.221 56.2479 77.4653C54.7633 75.539 53.4589 73.4828 52.3467 71.3154C52.9771 71.0344 53.6075 70.7534 54.2239 70.452L54.1892 70.4011ZM50.1145 65.8933C49.7674 64.7794 49.486 63.6402 49.2715 62.4804C49.1752 61.9037 49.1148 61.3027 49.0354 60.6996L48.9293 59.8011L48.9088 58.874C48.7856 56.3619 49.0707 53.7905 49.7542 51.2462C50.463 48.5508 51.5631 45.9087 53.0216 43.3989C54.5198 40.7139 56.2773 38.138 58.2683 35.709L59.0302 34.8005L59.8337 33.9532C60.3605 33.3913 60.9156 32.8527 61.4965 32.34C62.0594 31.8063 62.6272 31.4336 63.2725 30.9183C63.8632 30.5129 64.4819 30.1505 65.1221 29.8349C66.1823 29.2002 67.3857 28.887 68.5447 28.944C69.7038 29.0011 70.7535 29.4252 71.5304 30.1503C73.1432 31.9858 73.9399 34.3939 73.7841 36.962C73.7155 39.8172 73.1171 42.7127 72.0157 45.5187C70.8622 48.4749 69.3533 51.3407 67.5213 54.0543C65.7424 56.8064 63.5954 59.3633 61.1432 61.6501C58.6539 63.8873 55.864 65.792 52.8738 67.2957C52.2285 67.6317 51.5693 67.9474 50.915 68.2447C50.6111 67.4663 50.326 66.6899 50.0489 65.8484" fill="#F07922"/>
</svg>
